<svg xmlns="http://www.w3.org/2000/svg" viewBox="0 0 1060 720" font-family="'Segoe UI', system-ui, -apple-system, sans-serif">
  <defs>
    <linearGradient id="claudeGrad" x1="0%" y1="0%" x2="100%" y2="100%">
      <stop offset="0%" style="stop-color:#D97757;stop-opacity:1" />
      <stop offset="100%" style="stop-color:#C4653F;stop-opacity:1" />
    </linearGradient>
    <linearGradient id="stravaGrad" x1="0%" y1="0%" x2="100%" y2="100%">
      <stop offset="0%" style="stop-color:#FC4C02;stop-opacity:1" />
      <stop offset="100%" style="stop-color:#E04400;stop-opacity:1" />
    </linearGradient>
    <linearGradient id="paceGrad" x1="0%" y1="0%" x2="100%" y2="100%">
      <stop offset="0%" style="stop-color:#2563EB;stop-opacity:1" />
      <stop offset="100%" style="stop-color:#1D4ED8;stop-opacity:1" />
    </linearGradient>
    <linearGradient id="garminGrad" x1="0%" y1="0%" x2="100%" y2="100%">
      <stop offset="0%" style="stop-color:#007CC3;stop-opacity:1" />
      <stop offset="100%" style="stop-color:#005A8C;stop-opacity:1" />
    </linearGradient>
    <linearGradient id="extGrad" x1="0%" y1="0%" x2="100%" y2="100%">
      <stop offset="0%" style="stop-color:#374151;stop-opacity:1" />
      <stop offset="100%" style="stop-color:#1F2937;stop-opacity:1" />
    </linearGradient>
    <filter id="shadow" x="-4%" y="-4%" width="108%" height="116%">
      <feDropShadow dx="0" dy="2" stdDeviation="4" flood-color="#000" flood-opacity="0.10"/>
    </filter>
    <filter id="shadowSm" x="-4%" y="-4%" width="108%" height="116%">
      <feDropShadow dx="0" dy="1" stdDeviation="2" flood-color="#000" flood-opacity="0.08"/>
    </filter>
  </defs>

  <!-- Background -->
  <rect width="1060" height="720" rx="16" fill="#F9FAFB"/>

  <!-- Title -->
  <text x="530" y="42" text-anchor="middle" font-size="14" font-weight="600" fill="#6B7280" letter-spacing="2">PACE-AI ARCHITECTURE</text>

  <!-- ── Claude Box ── -->
  <rect x="330" y="64" width="400" height="100" rx="12" fill="url(#claudeGrad)" filter="url(#shadow)"/>
  <text x="530" y="102" text-anchor="middle" font-size="22" font-weight="700" fill="#fff">Claude</text>
  <text x="530" y="126" text-anchor="middle" font-size="13" fill="#FDDCCD" font-weight="500">LLM Orchestrator</text>
  <text x="530" y="148" text-anchor="middle" font-size="11.5" fill="#F5C5B0">Pulls data · Reasons with coaching science · Pushes workouts</text>

  <!-- ── Connection lines (Claude → servers) ── -->
  <line x1="420" y1="164" x2="200" y2="258" stroke="#9CA3AF" stroke-width="2" stroke-dasharray="6,4"/>
  <line x1="530" y1="164" x2="530" y2="258" stroke="#9CA3AF" stroke-width="2" stroke-dasharray="6,4"/>
  <line x1="640" y1="164" x2="860" y2="258" stroke="#9CA3AF" stroke-width="2" stroke-dasharray="6,4"/>

  <!-- MCP Protocol labels -->
  <rect x="256" y="200" width="100" height="22" rx="11" fill="#F3F4F6" stroke="#E5E7EB" stroke-width="1"/>
  <text x="306" y="215" text-anchor="middle" font-size="10" fill="#6B7280" font-weight="600">MCP Protocol</text>

  <rect x="480" y="200" width="100" height="22" rx="11" fill="#F3F4F6" stroke="#E5E7EB" stroke-width="1"/>
  <text x="530" y="215" text-anchor="middle" font-size="10" fill="#6B7280" font-weight="600">MCP Protocol</text>

  <rect x="704" y="200" width="100" height="22" rx="11" fill="#F3F4F6" stroke="#E5E7EB" stroke-width="1"/>
  <text x="754" y="215" text-anchor="middle" font-size="10" fill="#6B7280" font-weight="600">MCP Protocol</text>

  <!-- ── strava-mcp Box ── -->
  <rect x="30" y="258" width="340" height="200" rx="12" fill="#fff" stroke="#E5E7EB" stroke-width="1.5" filter="url(#shadow)"/>
  <rect x="30" y="258" width="340" height="52" rx="12" fill="url(#stravaGrad)"/>
  <rect x="30" y="290" width="340" height="20" fill="url(#stravaGrad)"/>
  <text x="200" y="290" text-anchor="middle" font-size="17" font-weight="700" fill="#fff">strava-mcp</text>
  <text x="200" y="305" text-anchor="middle" font-size="10.5" fill="#FED7C7">localhost:8001</text>

  <text x="54" y="338" font-size="11" font-weight="600" fill="#374151">TOOLS</text>
  <line x1="54" y1="343" x2="132" y2="343" stroke="#E5E7EB" stroke-width="1"/>
  <circle cx="64" cy="360" r="3" fill="#FC4C02"/>
  <text x="74" y="364" font-size="11" fill="#4B5563">authenticate</text>
  <circle cx="64" cy="380" r="3" fill="#FC4C02"/>
  <text x="74" y="384" font-size="11" fill="#4B5563">get_recent_activities</text>
  <circle cx="64" cy="400" r="3" fill="#FC4C02"/>
  <text x="74" y="404" font-size="11" fill="#4B5563">get_activity_streams</text>
  <circle cx="64" cy="420" r="3" fill="#FC4C02"/>
  <text x="74" y="424" font-size="11" fill="#4B5563">get_athlete_stats</text>
  <circle cx="64" cy="440" r="3" fill="#FC4C02"/>
  <text x="74" y="444" font-size="11" fill="#4B5563">+ 3 more tools</text>

  <text x="238" y="338" font-size="11" font-weight="600" fill="#374151">RESOURCES</text>
  <line x1="238" y1="343" x2="340" y2="343" stroke="#E5E7EB" stroke-width="1"/>
  <circle cx="248" cy="360" r="3" fill="#F97316"/>
  <text x="258" y="364" font-size="11" fill="#4B5563">athlete_profile</text>
  <circle cx="248" cy="380" r="3" fill="#F97316"/>
  <text x="258" y="384" font-size="11" fill="#4B5563">rate_limits</text>

  <!-- ── pace-ai Box ── -->
  <rect x="390" y="258" width="280" height="200" rx="12" fill="#fff" stroke="#E5E7EB" stroke-width="1.5" filter="url(#shadow)"/>
  <rect x="390" y="258" width="280" height="52" rx="12" fill="url(#paceGrad)"/>
  <rect x="390" y="290" width="280" height="20" fill="url(#paceGrad)"/>
  <text x="530" y="290" text-anchor="middle" font-size="17" font-weight="700" fill="#fff">pace-ai</text>
  <text x="530" y="305" text-anchor="middle" font-size="10.5" fill="#BFDBFE">localhost:8002</text>

  <text x="414" y="338" font-size="11" font-weight="600" fill="#374151">TOOLS</text>
  <line x1="414" y1="343" x2="490" y2="343" stroke="#E5E7EB" stroke-width="1"/>
  <circle cx="424" cy="360" r="3" fill="#2563EB"/>
  <text x="434" y="364" font-size="11" fill="#4B5563">analyze_training_load</text>
  <circle cx="424" cy="380" r="3" fill="#2563EB"/>
  <text x="434" y="384" font-size="11" fill="#4B5563">predict_race_time</text>
  <circle cx="424" cy="400" r="3" fill="#2563EB"/>
  <text x="434" y="404" font-size="11" fill="#4B5563">training_zones</text>
  <circle cx="424" cy="420" r="3" fill="#2563EB"/>
  <text x="434" y="424" font-size="11" fill="#4B5563">goal CRUD (4 tools)</text>

  <text x="580" y="338" font-size="11" font-weight="600" fill="#374151">PROMPTS</text>
  <line x1="580" y1="343" x2="654" y2="343" stroke="#E5E7EB" stroke-width="1"/>
  <circle cx="590" cy="360" r="3" fill="#7C3AED"/>
  <text x="600" y="364" font-size="11" fill="#4B5563">weekly_plan</text>
  <circle cx="590" cy="380" r="3" fill="#7C3AED"/>
  <text x="600" y="384" font-size="11" fill="#4B5563">run_analysis</text>
  <circle cx="590" cy="400" r="3" fill="#7C3AED"/>
  <text x="600" y="404" font-size="11" fill="#4B5563">race_readiness</text>
  <circle cx="590" cy="420" r="3" fill="#7C3AED"/>
  <text x="600" y="424" font-size="11" fill="#4B5563">injury_risk</text>

  <!-- ── garmin-mcp Box ── -->
  <rect x="690" y="258" width="340" height="200" rx="12" fill="#fff" stroke="#E5E7EB" stroke-width="1.5" filter="url(#shadow)"/>
  <rect x="690" y="258" width="340" height="52" rx="12" fill="url(#garminGrad)"/>
  <rect x="690" y="290" width="340" height="20" fill="url(#garminGrad)"/>
  <text x="860" y="290" text-anchor="middle" font-size="17" font-weight="700" fill="#fff">garmin-mcp</text>
  <text x="860" y="305" text-anchor="middle" font-size="10.5" fill="#B3DCF5">localhost:8003</text>

  <text x="714" y="338" font-size="11" font-weight="600" fill="#374151">TOOLS</text>
  <line x1="714" y1="343" x2="790" y2="343" stroke="#E5E7EB" stroke-width="1"/>
  <circle cx="724" cy="360" r="3" fill="#007CC3"/>
  <text x="734" y="364" font-size="11" fill="#4B5563">create_workout</text>
  <circle cx="724" cy="380" r="3" fill="#007CC3"/>
  <text x="734" y="384" font-size="11" fill="#4B5563">schedule_workout</text>
  <circle cx="724" cy="400" r="3" fill="#007CC3"/>
  <text x="734" y="404" font-size="11" fill="#4B5563">list / get / delete</text>
  <circle cx="724" cy="420" r="3" fill="#007CC3"/>
  <text x="734" y="424" font-size="11" fill="#4B5563">list_calendar</text>

  <text x="900" y="338" font-size="11" font-weight="600" fill="#374151">TYPES</text>
  <line x1="900" y1="343" x2="990" y2="343" stroke="#E5E7EB" stroke-width="1"/>
  <circle cx="910" cy="360" r="3" fill="#0EA5E9"/>
  <text x="920" y="364" font-size="11" fill="#4B5563">easy_run</text>
  <circle cx="910" cy="380" r="3" fill="#0EA5E9"/>
  <text x="920" y="384" font-size="11" fill="#4B5563">run_walk</text>
  <circle cx="910" cy="400" r="3" fill="#0EA5E9"/>
  <text x="920" y="404" font-size="11" fill="#4B5563">tempo / intervals</text>
  <circle cx="910" cy="420" r="3" fill="#0EA5E9"/>
  <text x="920" y="424" font-size="11" fill="#4B5563">strides / custom</text>

  <!-- ── Connection lines (servers → external) ── -->
  <line x1="200" y1="458" x2="200" y2="520" stroke="#9CA3AF" stroke-width="2" stroke-dasharray="6,4"/>
  <line x1="530" y1="458" x2="530" y2="520" stroke="#9CA3AF" stroke-width="2" stroke-dasharray="6,4"/>
  <line x1="860" y1="458" x2="860" y2="520" stroke="#9CA3AF" stroke-width="2" stroke-dasharray="6,4"/>

  <!-- ── External: Strava API ── -->
  <rect x="100" y="526" width="200" height="64" rx="10" fill="url(#extGrad)" filter="url(#shadowSm)"/>
  <text x="200" y="556" text-anchor="middle" font-size="14" font-weight="600" fill="#fff">Strava API</text>
  <text x="200" y="574" text-anchor="middle" font-size="10.5" fill="#9CA3AF">OAuth2 · REST</text>

  <!-- ── External: SQLite ── -->
  <rect x="430" y="526" width="200" height="64" rx="10" fill="url(#extGrad)" filter="url(#shadowSm)"/>
  <text x="530" y="556" text-anchor="middle" font-size="14" font-weight="600" fill="#fff">SQLite</text>
  <text x="530" y="574" text-anchor="middle" font-size="10.5" fill="#9CA3AF">Goals · Tokens · Cache</text>

  <!-- ── External: Garmin Connect ── -->
  <rect x="760" y="526" width="200" height="64" rx="10" fill="url(#extGrad)" filter="url(#shadowSm)"/>
  <text x="860" y="556" text-anchor="middle" font-size="14" font-weight="600" fill="#fff">Garmin Connect</text>
  <text x="860" y="574" text-anchor="middle" font-size="10.5" fill="#9CA3AF">SSO · Workouts → Watch</text>

  <!-- Footer -->
  <text x="530" y="640" text-anchor="middle" font-size="10.5" fill="#9CA3AF">Streamable HTTP transport · Python 3.10+ · Async I/O</text>

  <!-- Data flow arrows -->
  <text x="130" y="508" font-size="9" fill="#6B7280">↓ pull data</text>
  <text x="502" y="508" font-size="9" fill="#6B7280">↕ persist</text>
  <text x="820" y="508" font-size="9" fill="#6B7280">↑ push workouts</text>
</svg>
