<svg xmlns="http://www.w3.org/2000/svg" viewBox="0 0 1280 880" font-family="'Segoe UI', system-ui, -apple-system, sans-serif">
  <defs>
    <linearGradient id="uiGrad" x1="0%" y1="0%" x2="100%" y2="100%">
      <stop offset="0%" style="stop-color:#3B82F6;stop-opacity:1" />
      <stop offset="100%" style="stop-color:#1D4ED8;stop-opacity:1" />
    </linearGradient>
    <linearGradient id="claudeGrad" x1="0%" y1="0%" x2="100%" y2="100%">
      <stop offset="0%" style="stop-color:#D97757;stop-opacity:1" />
      <stop offset="100%" style="stop-color:#C4653F;stop-opacity:1" />
    </linearGradient>
    <linearGradient id="stravaGrad" x1="0%" y1="0%" x2="100%" y2="100%">
      <stop offset="0%" style="stop-color:#FC4C02;stop-opacity:1" />
      <stop offset="100%" style="stop-color:#E04400;stop-opacity:1" />
    </linearGradient>
    <linearGradient id="paceGrad" x1="0%" y1="0%" x2="100%" y2="100%">
      <stop offset="0%" style="stop-color:#2563EB;stop-opacity:1" />
      <stop offset="100%" style="stop-color:#1D4ED8;stop-opacity:1" />
    </linearGradient>
    <linearGradient id="garminGrad" x1="0%" y1="0%" x2="100%" y2="100%">
      <stop offset="0%" style="stop-color:#007CC3;stop-opacity:1" />
      <stop offset="100%" style="stop-color:#005A8C;stop-opacity:1" />
    </linearGradient>
    <linearGradient id="withingsGrad" x1="0%" y1="0%" x2="100%" y2="100%">
      <stop offset="0%" style="stop-color:#00B4D8;stop-opacity:1" />
      <stop offset="100%" style="stop-color:#0096B7;stop-opacity:1" />
    </linearGradient>
    <linearGradient id="notionGrad" x1="0%" y1="0%" x2="100%" y2="100%">
      <stop offset="0%" style="stop-color:#37352F;stop-opacity:1" />
      <stop offset="100%" style="stop-color:#1A1918;stop-opacity:1" />
    </linearGradient>
    <linearGradient id="extGrad" x1="0%" y1="0%" x2="100%" y2="100%">
      <stop offset="0%" style="stop-color:#374151;stop-opacity:1" />
      <stop offset="100%" style="stop-color:#1F2937;stop-opacity:1" />
    </linearGradient>
    <linearGradient id="claimsGrad" x1="0%" y1="0%" x2="100%" y2="100%">
      <stop offset="0%" style="stop-color:#7C3AED;stop-opacity:1" />
      <stop offset="100%" style="stop-color:#5B21B6;stop-opacity:1" />
    </linearGradient>
    <filter id="shadow" x="-4%" y="-4%" width="108%" height="116%">
      <feDropShadow dx="0" dy="2" stdDeviation="4" flood-color="#000" flood-opacity="0.10"/>
    </filter>
    <filter id="shadowSm" x="-4%" y="-4%" width="108%" height="116%">
      <feDropShadow dx="0" dy="1" stdDeviation="2" flood-color="#000" flood-opacity="0.08"/>
    </filter>
  </defs>

  <!-- Background -->
  <rect width="1280" height="880" rx="16" fill="#F9FAFB"/>

  <!-- Title -->
  <text x="640" y="42" text-anchor="middle" font-size="14" font-weight="600" fill="#6B7280" letter-spacing="2">PACE-AI ARCHITECTURE</text>

  <!-- ── Flask UI Box ── -->
  <rect x="360" y="64" width="560" height="80" rx="12" fill="url(#uiGrad)" filter="url(#shadow)"/>
  <text x="640" y="98" text-anchor="middle" font-size="20" font-weight="700" fill="#fff">Flask Web UI</text>
  <text x="640" y="118" text-anchor="middle" font-size="11" fill="#BFDBFE">localhost:5050 · Status → Plan → Chat → Schedule → End Session</text>
  <text x="640" y="134" text-anchor="middle" font-size="10" fill="#93C5FD">6 agents · structured JSON output · parallel STATUS</text>

  <!-- ── Claude Box ── -->
  <rect x="440" y="178" width="400" height="72" rx="12" fill="url(#claudeGrad)" filter="url(#shadow)"/>
  <text x="640" y="210" text-anchor="middle" font-size="18" font-weight="700" fill="#fff">Claude</text>
  <text x="640" y="230" text-anchor="middle" font-size="11" fill="#FDDCCD">claude -p · Orchestrated by UI into focused agent calls</text>

  <!-- UI → Claude connection -->
  <line x1="640" y1="144" x2="640" y2="178" stroke="#6B7280" stroke-width="2"/>
  <text x="660" y="166" font-size="9" fill="#6B7280">claude -p</text>

  <!-- ── Connection lines (Claude → servers) ── -->
  <line x1="510" y1="250" x2="135" y2="340" stroke="#9CA3AF" stroke-width="2" stroke-dasharray="6,4"/>
  <line x1="560" y1="250" x2="380" y2="340" stroke="#9CA3AF" stroke-width="2" stroke-dasharray="6,4"/>
  <line x1="640" y1="250" x2="640" y2="340" stroke="#9CA3AF" stroke-width="2" stroke-dasharray="6,4"/>
  <line x1="720" y1="250" x2="900" y2="340" stroke="#9CA3AF" stroke-width="2" stroke-dasharray="6,4"/>
  <line x1="770" y1="250" x2="1145" y2="340" stroke="#9CA3AF" stroke-width="2" stroke-dasharray="6,4"/>

  <!-- MCP Protocol labels -->
  <rect x="270" y="282" width="100" height="22" rx="11" fill="#F3F4F6" stroke="#E5E7EB" stroke-width="1"/>
  <text x="320" y="297" text-anchor="middle" font-size="10" fill="#6B7280" font-weight="600">MCP Protocol</text>

  <rect x="590" y="282" width="100" height="22" rx="11" fill="#F3F4F6" stroke="#E5E7EB" stroke-width="1"/>
  <text x="640" y="297" text-anchor="middle" font-size="10" fill="#6B7280" font-weight="600">MCP Protocol</text>

  <rect x="910" y="282" width="100" height="22" rx="11" fill="#F3F4F6" stroke="#E5E7EB" stroke-width="1"/>
  <text x="960" y="297" text-anchor="middle" font-size="10" fill="#6B7280" font-weight="600">MCP Protocol</text>

  <!-- ── strava-mcp Box ── -->
  <rect x="15" y="340" width="240" height="200" rx="12" fill="#fff" stroke="#E5E7EB" stroke-width="1.5" filter="url(#shadow)"/>
  <rect x="15" y="340" width="240" height="52" rx="12" fill="url(#stravaGrad)"/>
  <rect x="15" y="372" width="240" height="20" fill="url(#stravaGrad)"/>
  <text x="135" y="372" text-anchor="middle" font-size="16" font-weight="700" fill="#fff">strava-mcp</text>
  <text x="135" y="387" text-anchor="middle" font-size="10" fill="#FED7C7">localhost:8001</text>

  <text x="35" y="418" font-size="10" font-weight="600" fill="#374151">TOOLS (12)</text>
  <line x1="35" y1="422" x2="120" y2="422" stroke="#E5E7EB" stroke-width="1"/>
  <circle cx="42" cy="438" r="3" fill="#FC4C02"/>
  <text x="50" y="442" font-size="10" fill="#4B5563">authenticate · get_athlete</text>
  <circle cx="42" cy="456" r="3" fill="#FC4C02"/>
  <text x="50" y="460" font-size="10" fill="#4B5563">activities · streams · stats</text>
  <circle cx="42" cy="474" r="3" fill="#FC4C02"/>
  <text x="50" y="478" font-size="10" fill="#4B5563">best_efforts · search</text>
  <circle cx="42" cy="492" r="3" fill="#FC4C02"/>
  <text x="50" y="496" font-size="10" fill="#4B5563">weekly_summary · segments</text>
  <circle cx="42" cy="510" r="3" fill="#FC4C02"/>
  <text x="50" y="514" font-size="10" fill="#4B5563">shoe_mileage · zones</text>

  <!-- ── pace-ai Box ── -->
  <rect x="270" y="340" width="220" height="200" rx="12" fill="#fff" stroke="#E5E7EB" stroke-width="1.5" filter="url(#shadow)"/>
  <rect x="270" y="340" width="220" height="52" rx="12" fill="url(#paceGrad)"/>
  <rect x="270" y="372" width="220" height="20" fill="url(#paceGrad)"/>
  <text x="380" y="372" text-anchor="middle" font-size="16" font-weight="700" fill="#fff">pace-ai</text>
  <text x="380" y="387" text-anchor="middle" font-size="10" fill="#BFDBFE">localhost:8002</text>

  <text x="290" y="418" font-size="10" font-weight="600" fill="#374151">TOOLS (43) · PROMPTS (4)</text>
  <line x1="290" y1="422" x2="470" y2="422" stroke="#E5E7EB" stroke-width="1"/>
  <circle cx="297" cy="438" r="3" fill="#2563EB"/>
  <text x="305" y="442" font-size="10" fill="#4B5563">ACWR · VDOT · zones · HR</text>
  <circle cx="297" cy="456" r="3" fill="#2563EB"/>
  <text x="305" y="460" font-size="10" fill="#4B5563">sync (6) · history (7)</text>
  <circle cx="297" cy="474" r="3" fill="#2563EB"/>
  <text x="305" y="478" font-size="10" fill="#4B5563">coaching memory (8)</text>
  <circle cx="297" cy="492" r="3" fill="#2563EB"/>
  <text x="305" y="496" font-size="10" fill="#4B5563">profile (3) · goals (4)</text>
  <circle cx="297" cy="510" r="3" fill="#7C3AED"/>
  <text x="305" y="514" font-size="10" fill="#4B5563">run analysis · anomalies</text>

  <!-- ── garmin-mcp Box ── -->
  <rect x="505" y="340" width="270" height="200" rx="12" fill="#fff" stroke="#E5E7EB" stroke-width="1.5" filter="url(#shadow)"/>
  <rect x="505" y="340" width="270" height="52" rx="12" fill="url(#garminGrad)"/>
  <rect x="505" y="372" width="270" height="20" fill="url(#garminGrad)"/>
  <text x="640" y="372" text-anchor="middle" font-size="16" font-weight="700" fill="#fff">garmin-mcp</text>
  <text x="640" y="387" text-anchor="middle" font-size="10" fill="#B3DCF5">localhost:8003</text>

  <text x="525" y="418" font-size="10" font-weight="600" fill="#374151">TOOLS (17)</text>
  <line x1="525" y1="422" x2="600" y2="422" stroke="#E5E7EB" stroke-width="1"/>
  <circle cx="532" cy="438" r="3" fill="#007CC3"/>
  <text x="540" y="442" font-size="10" fill="#4B5563">create · schedule · delete</text>
  <circle cx="532" cy="456" r="3" fill="#007CC3"/>
  <text x="540" y="460" font-size="10" fill="#4B5563">list · get · calendar</text>
  <circle cx="532" cy="474" r="3" fill="#007CC3"/>
  <text x="540" y="478" font-size="10" fill="#4B5563">create_and_schedule</text>

  <text x="680" y="418" font-size="10" font-weight="600" fill="#374151">WELLNESS (7)</text>
  <line x1="680" y1="422" x2="750" y2="422" stroke="#E5E7EB" stroke-width="1"/>
  <circle cx="687" cy="438" r="3" fill="#0EA5E9"/>
  <text x="695" y="442" font-size="10" fill="#4B5563">body_battery · sleep</text>
  <circle cx="687" cy="456" r="3" fill="#0EA5E9"/>
  <text x="695" y="460" font-size="10" fill="#4B5563">HRV · stress · RHR</text>
  <circle cx="687" cy="474" r="3" fill="#0EA5E9"/>
  <text x="695" y="478" font-size="10" fill="#4B5563">readiness · snapshot</text>

  <!-- ── withings-mcp Box ── -->
  <rect x="790" y="340" width="220" height="200" rx="12" fill="#fff" stroke="#E5E7EB" stroke-width="1.5" filter="url(#shadow)"/>
  <rect x="790" y="340" width="220" height="52" rx="12" fill="url(#withingsGrad)"/>
  <rect x="790" y="372" width="220" height="20" fill="url(#withingsGrad)"/>
  <text x="900" y="372" text-anchor="middle" font-size="16" font-weight="700" fill="#fff">withings-mcp</text>
  <text x="900" y="387" text-anchor="middle" font-size="10" fill="#D0F0FF">localhost:8004</text>

  <text x="810" y="418" font-size="10" font-weight="600" fill="#374151">TOOLS (5)</text>
  <line x1="810" y1="422" x2="880" y2="422" stroke="#E5E7EB" stroke-width="1"/>
  <circle cx="817" cy="438" r="3" fill="#00B4D8"/>
  <text x="825" y="442" font-size="10" fill="#4B5563">measurements · weight</text>
  <circle cx="817" cy="456" r="3" fill="#00B4D8"/>
  <text x="825" y="460" font-size="10" fill="#4B5563">blood_pressure</text>
  <circle cx="817" cy="474" r="3" fill="#00B4D8"/>
  <text x="825" y="478" font-size="10" fill="#4B5563">body_comp_trend</text>

  <!-- ── notion-mcp Box ── -->
  <rect x="1025" y="340" width="240" height="200" rx="12" fill="#fff" stroke="#E5E7EB" stroke-width="1.5" filter="url(#shadow)"/>
  <rect x="1025" y="340" width="240" height="52" rx="12" fill="url(#notionGrad)"/>
  <rect x="1025" y="372" width="240" height="20" fill="url(#notionGrad)"/>
  <text x="1145" y="372" text-anchor="middle" font-size="16" font-weight="700" fill="#fff">notion-mcp</text>
  <text x="1145" y="387" text-anchor="middle" font-size="10" fill="#C8C8C4">localhost:8005</text>

  <text x="1045" y="418" font-size="10" font-weight="600" fill="#374151">TOOLS (1)</text>
  <line x1="1045" y1="422" x2="1115" y2="422" stroke="#E5E7EB" stroke-width="1"/>
  <circle cx="1052" cy="438" r="3" fill="#37352F"/>
  <text x="1060" y="442" font-size="10" fill="#4B5563">get_diary_entries</text>

  <text x="1045" y="474" font-size="10" font-weight="600" fill="#374151">FIELDS</text>
  <line x1="1045" y1="478" x2="1115" y2="478" stroke="#E5E7EB" stroke-width="1"/>
  <circle cx="1052" cy="494" r="3" fill="#9B9B97"/>
  <text x="1060" y="498" font-size="10" fill="#4B5563">stress (1-5) · niggles</text>
  <circle cx="1052" cy="512" r="3" fill="#9B9B97"/>
  <text x="1060" y="516" font-size="10" fill="#4B5563">notes · date</text>

  <!-- ── Connection lines (servers → external) ── -->
  <line x1="135" y1="540" x2="105" y2="620" stroke="#9CA3AF" stroke-width="2" stroke-dasharray="6,4"/>
  <line x1="380" y1="540" x2="310" y2="620" stroke="#9CA3AF" stroke-width="2" stroke-dasharray="6,4"/>
  <line x1="640" y1="540" x2="560" y2="620" stroke="#9CA3AF" stroke-width="2" stroke-dasharray="6,4"/>
  <line x1="640" y1="540" x2="820" y2="620" stroke="#9CA3AF" stroke-width="2" stroke-dasharray="6,4"/>
  <line x1="900" y1="540" x2="900" y2="620" stroke="#9CA3AF" stroke-width="2" stroke-dasharray="6,4"/>
  <line x1="1145" y1="540" x2="1145" y2="620" stroke="#9CA3AF" stroke-width="2" stroke-dasharray="6,4"/>

  <!-- ── External: Strava API ── -->
  <rect x="15" y="626" width="180" height="56" rx="10" fill="url(#extGrad)" filter="url(#shadowSm)"/>
  <text x="105" y="654" text-anchor="middle" font-size="13" font-weight="600" fill="#fff">Strava API</text>
  <text x="105" y="670" text-anchor="middle" font-size="10" fill="#9CA3AF">OAuth2 · REST</text>

  <!-- ── External: Claims DB ── -->
  <rect x="210" y="626" width="200" height="56" rx="10" fill="url(#claimsGrad)" filter="url(#shadowSm)"/>
  <text x="310" y="654" text-anchor="middle" font-size="13" font-weight="600" fill="#fff">Research Claims DB</text>
  <text x="310" y="670" text-anchor="middle" font-size="10" fill="#C4B5FD">3,113 claims · 54 categories</text>

  <!-- ── External: SQLite ── -->
  <rect x="460" y="626" width="200" height="56" rx="10" fill="url(#extGrad)" filter="url(#shadowSm)"/>
  <text x="560" y="654" text-anchor="middle" font-size="13" font-weight="600" fill="#fff">SQLite</text>
  <text x="560" y="670" text-anchor="middle" font-size="10" fill="#9CA3AF">History · Goals · Sessions</text>

  <!-- ── External: Garmin Connect ── -->
  <rect x="720" y="626" width="200" height="56" rx="10" fill="url(#extGrad)" filter="url(#shadowSm)"/>
  <text x="820" y="654" text-anchor="middle" font-size="13" font-weight="600" fill="#fff">Garmin Connect</text>
  <text x="820" y="670" text-anchor="middle" font-size="10" fill="#9CA3AF">SSO · Workouts → Watch</text>

  <!-- ── External: Withings API ── -->
  <rect x="800" y="726" width="200" height="48" rx="10" fill="url(#extGrad)" filter="url(#shadowSm)"/>
  <text x="900" y="752" text-anchor="middle" font-size="13" font-weight="600" fill="#fff">Withings API</text>
  <text x="900" y="766" text-anchor="middle" font-size="10" fill="#9CA3AF">withings-sync</text>

  <!-- ── External: Notion API ── -->
  <rect x="1045" y="626" width="200" height="56" rx="10" fill="url(#extGrad)" filter="url(#shadowSm)"/>
  <text x="1145" y="654" text-anchor="middle" font-size="13" font-weight="600" fill="#fff">Notion API</text>
  <text x="1145" y="670" text-anchor="middle" font-size="10" fill="#9CA3AF">Internal Integration</text>

  <!-- Data flow arrows -->
  <text x="50" y="610" font-size="9" fill="#6B7280">pull data</text>
  <text x="260" y="610" font-size="9" fill="#6B7280">query evidence</text>
  <text x="520" y="610" font-size="9" fill="#6B7280">persist</text>
  <text x="780" y="610" font-size="9" fill="#6B7280">push workouts</text>
  <text x="1100" y="610" font-size="9" fill="#6B7280">pull diary</text>

  <!-- Withings connection -->
  <line x1="900" y1="682" x2="900" y2="726" stroke="#9CA3AF" stroke-width="2" stroke-dasharray="6,4"/>
  <text x="848" y="712" font-size="9" fill="#6B7280">pull body comp</text>

  <!-- ── Agent pipeline at bottom ── -->
  <rect x="100" y="800" width="1080" height="50" rx="10" fill="#F3F4F6" stroke="#E5E7EB" stroke-width="1"/>
  <text x="140" y="830" font-size="12" font-weight="600" fill="#374151">UI Agent Pipeline:</text>
  <text x="290" y="830" font-size="12" fill="#3B82F6" font-weight="600">STATUS</text>
  <text x="345" y="830" font-size="12" fill="#9CA3AF">→</text>
  <text x="365" y="830" font-size="12" fill="#7C3AED" font-weight="600">PLAN</text>
  <text x="405" y="830" font-size="12" fill="#9CA3AF">→</text>
  <text x="425" y="830" font-size="12" fill="#374151" font-weight="600">CHAT</text>
  <text x="470" y="830" font-size="12" fill="#9CA3AF">→</text>
  <text x="490" y="830" font-size="12" fill="#F59E0B" font-weight="600">NUTRITION</text>
  <text x="570" y="830" font-size="12" fill="#9CA3AF">→</text>
  <text x="590" y="830" font-size="12" fill="#10B981" font-weight="600">EXERCISE</text>
  <text x="665" y="830" font-size="12" fill="#9CA3AF">→</text>
  <text x="685" y="830" font-size="12" fill="#EF4444" font-weight="600">END SESSION</text>
  <text x="820" y="830" font-size="10" fill="#6B7280">Structured JSON output · RAG status indicators</text>

  <!-- Footer -->
  <text x="640" y="870" text-anchor="middle" font-size="10.5" fill="#9CA3AF">Streamable HTTP · Python 3.10+ · 6 UI agents · 78 tools · 4 prompts · 8 resources</text>
</svg>
