<svg xmlns="http://www.w3.org/2000/svg" viewBox="0 0 1280 780" font-family="'Segoe UI', system-ui, -apple-system, sans-serif">
  <defs>
    <linearGradient id="claudeGrad" x1="0%" y1="0%" x2="100%" y2="100%">
      <stop offset="0%" style="stop-color:#D97757;stop-opacity:1" />
      <stop offset="100%" style="stop-color:#C4653F;stop-opacity:1" />
    </linearGradient>
    <linearGradient id="stravaGrad" x1="0%" y1="0%" x2="100%" y2="100%">
      <stop offset="0%" style="stop-color:#FC4C02;stop-opacity:1" />
      <stop offset="100%" style="stop-color:#E04400;stop-opacity:1" />
    </linearGradient>
    <linearGradient id="paceGrad" x1="0%" y1="0%" x2="100%" y2="100%">
      <stop offset="0%" style="stop-color:#2563EB;stop-opacity:1" />
      <stop offset="100%" style="stop-color:#1D4ED8;stop-opacity:1" />
    </linearGradient>
    <linearGradient id="garminGrad" x1="0%" y1="0%" x2="100%" y2="100%">
      <stop offset="0%" style="stop-color:#007CC3;stop-opacity:1" />
      <stop offset="100%" style="stop-color:#005A8C;stop-opacity:1" />
    </linearGradient>
    <linearGradient id="withingsGrad" x1="0%" y1="0%" x2="100%" y2="100%">
      <stop offset="0%" style="stop-color:#00B4D8;stop-opacity:1" />
      <stop offset="100%" style="stop-color:#0096B7;stop-opacity:1" />
    </linearGradient>
    <linearGradient id="notionGrad" x1="0%" y1="0%" x2="100%" y2="100%">
      <stop offset="0%" style="stop-color:#37352F;stop-opacity:1" />
      <stop offset="100%" style="stop-color:#1A1918;stop-opacity:1" />
    </linearGradient>
    <linearGradient id="extGrad" x1="0%" y1="0%" x2="100%" y2="100%">
      <stop offset="0%" style="stop-color:#374151;stop-opacity:1" />
      <stop offset="100%" style="stop-color:#1F2937;stop-opacity:1" />
    </linearGradient>
    <filter id="shadow" x="-4%" y="-4%" width="108%" height="116%">
      <feDropShadow dx="0" dy="2" stdDeviation="4" flood-color="#000" flood-opacity="0.10"/>
    </filter>
    <filter id="shadowSm" x="-4%" y="-4%" width="108%" height="116%">
      <feDropShadow dx="0" dy="1" stdDeviation="2" flood-color="#000" flood-opacity="0.08"/>
    </filter>
  </defs>

  <!-- Background -->
  <rect width="1280" height="780" rx="16" fill="#F9FAFB"/>

  <!-- Title -->
  <text x="640" y="42" text-anchor="middle" font-size="14" font-weight="600" fill="#6B7280" letter-spacing="2">PACE-AI ARCHITECTURE</text>

  <!-- ── Claude Box ── -->
  <rect x="440" y="64" width="400" height="100" rx="12" fill="url(#claudeGrad)" filter="url(#shadow)"/>
  <text x="640" y="102" text-anchor="middle" font-size="22" font-weight="700" fill="#fff">Claude</text>
  <text x="640" y="126" text-anchor="middle" font-size="13" fill="#FDDCCD" font-weight="500">LLM Orchestrator</text>
  <text x="640" y="148" text-anchor="middle" font-size="11.5" fill="#F5C5B0">Pulls data · Reasons with coaching science · Pushes workouts</text>

  <!-- ── Connection lines (Claude → servers) ── -->
  <line x1="510" y1="164" x2="135" y2="258" stroke="#9CA3AF" stroke-width="2" stroke-dasharray="6,4"/>
  <line x1="560" y1="164" x2="380" y2="258" stroke="#9CA3AF" stroke-width="2" stroke-dasharray="6,4"/>
  <line x1="640" y1="164" x2="640" y2="258" stroke="#9CA3AF" stroke-width="2" stroke-dasharray="6,4"/>
  <line x1="720" y1="164" x2="900" y2="258" stroke="#9CA3AF" stroke-width="2" stroke-dasharray="6,4"/>
  <line x1="770" y1="164" x2="1145" y2="258" stroke="#9CA3AF" stroke-width="2" stroke-dasharray="6,4"/>

  <!-- MCP Protocol labels -->
  <rect x="270" y="200" width="100" height="22" rx="11" fill="#F3F4F6" stroke="#E5E7EB" stroke-width="1"/>
  <text x="320" y="215" text-anchor="middle" font-size="10" fill="#6B7280" font-weight="600">MCP Protocol</text>

  <rect x="590" y="200" width="100" height="22" rx="11" fill="#F3F4F6" stroke="#E5E7EB" stroke-width="1"/>
  <text x="640" y="215" text-anchor="middle" font-size="10" fill="#6B7280" font-weight="600">MCP Protocol</text>

  <rect x="910" y="200" width="100" height="22" rx="11" fill="#F3F4F6" stroke="#E5E7EB" stroke-width="1"/>
  <text x="960" y="215" text-anchor="middle" font-size="10" fill="#6B7280" font-weight="600">MCP Protocol</text>

  <!-- ── strava-mcp Box ── -->
  <rect x="15" y="258" width="240" height="200" rx="12" fill="#fff" stroke="#E5E7EB" stroke-width="1.5" filter="url(#shadow)"/>
  <rect x="15" y="258" width="240" height="52" rx="12" fill="url(#stravaGrad)"/>
  <rect x="15" y="290" width="240" height="20" fill="url(#stravaGrad)"/>
  <text x="135" y="290" text-anchor="middle" font-size="16" font-weight="700" fill="#fff">strava-mcp</text>
  <text x="135" y="305" text-anchor="middle" font-size="10" fill="#FED7C7">localhost:8001</text>

  <text x="35" y="336" font-size="10" font-weight="600" fill="#374151">TOOLS (7)</text>
  <line x1="35" y1="340" x2="110" y2="340" stroke="#E5E7EB" stroke-width="1"/>
  <circle cx="42" cy="356" r="3" fill="#FC4C02"/>
  <text x="50" y="360" font-size="10" fill="#4B5563">authenticate</text>
  <circle cx="42" cy="374" r="3" fill="#FC4C02"/>
  <text x="50" y="378" font-size="10" fill="#4B5563">get_recent_activities</text>
  <circle cx="42" cy="392" r="3" fill="#FC4C02"/>
  <text x="50" y="396" font-size="10" fill="#4B5563">get_activity_streams</text>
  <circle cx="42" cy="410" r="3" fill="#FC4C02"/>
  <text x="50" y="414" font-size="10" fill="#4B5563">get_athlete_stats</text>
  <circle cx="42" cy="428" r="3" fill="#FC4C02"/>
  <text x="50" y="432" font-size="10" fill="#4B5563">+ 3 more</text>

  <!-- ── pace-ai Box ── -->
  <rect x="270" y="258" width="220" height="200" rx="12" fill="#fff" stroke="#E5E7EB" stroke-width="1.5" filter="url(#shadow)"/>
  <rect x="270" y="258" width="220" height="52" rx="12" fill="url(#paceGrad)"/>
  <rect x="270" y="290" width="220" height="20" fill="url(#paceGrad)"/>
  <text x="380" y="290" text-anchor="middle" font-size="16" font-weight="700" fill="#fff">pace-ai</text>
  <text x="380" y="305" text-anchor="middle" font-size="10" fill="#BFDBFE">localhost:8002</text>

  <text x="290" y="336" font-size="10" font-weight="600" fill="#374151">TOOLS (7)</text>
  <line x1="290" y1="340" x2="360" y2="340" stroke="#E5E7EB" stroke-width="1"/>
  <circle cx="297" cy="356" r="3" fill="#2563EB"/>
  <text x="305" y="360" font-size="10" fill="#4B5563">analyze_training_load</text>
  <circle cx="297" cy="374" r="3" fill="#2563EB"/>
  <text x="305" y="378" font-size="10" fill="#4B5563">predict_race_time</text>
  <circle cx="297" cy="392" r="3" fill="#2563EB"/>
  <text x="305" y="396" font-size="10" fill="#4B5563">training_zones</text>
  <circle cx="297" cy="410" r="3" fill="#2563EB"/>
  <text x="305" y="414" font-size="10" fill="#4B5563">goal CRUD (4)</text>
  <circle cx="297" cy="428" r="3" fill="#7C3AED"/>
  <text x="305" y="432" font-size="10" fill="#4B5563">4 coaching prompts</text>

  <!-- ── garmin-mcp Box ── -->
  <rect x="505" y="258" width="270" height="200" rx="12" fill="#fff" stroke="#E5E7EB" stroke-width="1.5" filter="url(#shadow)"/>
  <rect x="505" y="258" width="270" height="52" rx="12" fill="url(#garminGrad)"/>
  <rect x="505" y="290" width="270" height="20" fill="url(#garminGrad)"/>
  <text x="640" y="290" text-anchor="middle" font-size="16" font-weight="700" fill="#fff">garmin-mcp</text>
  <text x="640" y="305" text-anchor="middle" font-size="10" fill="#B3DCF5">localhost:8003</text>

  <text x="525" y="336" font-size="10" font-weight="600" fill="#374151">TOOLS (7)</text>
  <line x1="525" y1="340" x2="600" y2="340" stroke="#E5E7EB" stroke-width="1"/>
  <circle cx="532" cy="356" r="3" fill="#007CC3"/>
  <text x="540" y="360" font-size="10" fill="#4B5563">create_workout</text>
  <circle cx="532" cy="374" r="3" fill="#007CC3"/>
  <text x="540" y="378" font-size="10" fill="#4B5563">schedule_workout</text>
  <circle cx="532" cy="392" r="3" fill="#007CC3"/>
  <text x="540" y="396" font-size="10" fill="#4B5563">list / get / delete</text>
  <circle cx="532" cy="410" r="3" fill="#007CC3"/>
  <text x="540" y="414" font-size="10" fill="#4B5563">list_calendar</text>

  <text x="680" y="336" font-size="10" font-weight="600" fill="#374151">TYPES</text>
  <line x1="680" y1="340" x2="750" y2="340" stroke="#E5E7EB" stroke-width="1"/>
  <circle cx="687" cy="356" r="3" fill="#0EA5E9"/>
  <text x="695" y="360" font-size="10" fill="#4B5563">easy_run</text>
  <circle cx="687" cy="374" r="3" fill="#0EA5E9"/>
  <text x="695" y="378" font-size="10" fill="#4B5563">tempo / intervals</text>
  <circle cx="687" cy="392" r="3" fill="#0EA5E9"/>
  <text x="695" y="396" font-size="10" fill="#4B5563">strides / custom</text>

  <!-- ── withings-mcp Box ── -->
  <rect x="790" y="258" width="220" height="200" rx="12" fill="#fff" stroke="#E5E7EB" stroke-width="1.5" filter="url(#shadow)"/>
  <rect x="790" y="258" width="220" height="52" rx="12" fill="url(#withingsGrad)"/>
  <rect x="790" y="290" width="220" height="20" fill="url(#withingsGrad)"/>
  <text x="900" y="290" text-anchor="middle" font-size="16" font-weight="700" fill="#fff">withings-mcp</text>
  <text x="900" y="305" text-anchor="middle" font-size="10" fill="#D0F0FF">localhost:8004</text>

  <text x="810" y="336" font-size="10" font-weight="600" fill="#374151">TOOLS (5)</text>
  <line x1="810" y1="340" x2="880" y2="340" stroke="#E5E7EB" stroke-width="1"/>
  <circle cx="817" cy="356" r="3" fill="#00B4D8"/>
  <text x="825" y="360" font-size="10" fill="#4B5563">get_measurements</text>
  <circle cx="817" cy="374" r="3" fill="#00B4D8"/>
  <text x="825" y="378" font-size="10" fill="#4B5563">get_latest_weight</text>
  <circle cx="817" cy="392" r="3" fill="#00B4D8"/>
  <text x="825" y="396" font-size="10" fill="#4B5563">get_blood_pressure</text>
  <circle cx="817" cy="410" r="3" fill="#00B4D8"/>
  <text x="825" y="414" font-size="10" fill="#4B5563">body_comp_trend</text>

  <!-- ── notion-mcp Box ── -->
  <rect x="1025" y="258" width="240" height="200" rx="12" fill="#fff" stroke="#E5E7EB" stroke-width="1.5" filter="url(#shadow)"/>
  <rect x="1025" y="258" width="240" height="52" rx="12" fill="url(#notionGrad)"/>
  <rect x="1025" y="290" width="240" height="20" fill="url(#notionGrad)"/>
  <text x="1145" y="290" text-anchor="middle" font-size="16" font-weight="700" fill="#fff">notion-mcp</text>
  <text x="1145" y="305" text-anchor="middle" font-size="10" fill="#C8C8C4">localhost:8005</text>

  <text x="1045" y="336" font-size="10" font-weight="600" fill="#374151">TOOLS (1)</text>
  <line x1="1045" y1="340" x2="1115" y2="340" stroke="#E5E7EB" stroke-width="1"/>
  <circle cx="1052" cy="356" r="3" fill="#37352F"/>
  <text x="1060" y="360" font-size="10" fill="#4B5563">get_diary_entries</text>

  <text x="1045" y="392" font-size="10" font-weight="600" fill="#374151">FIELDS</text>
  <line x1="1045" y1="396" x2="1115" y2="396" stroke="#E5E7EB" stroke-width="1"/>
  <circle cx="1052" cy="412" r="3" fill="#9B9B97"/>
  <text x="1060" y="416" font-size="10" fill="#4B5563">stress (1-5)</text>
  <circle cx="1052" cy="430" r="3" fill="#9B9B97"/>
  <text x="1060" y="434" font-size="10" fill="#4B5563">niggles · notes</text>

  <!-- ── Connection lines (servers → external) ── -->
  <line x1="135" y1="458" x2="135" y2="530" stroke="#9CA3AF" stroke-width="2" stroke-dasharray="6,4"/>
  <line x1="640" y1="458" x2="460" y2="530" stroke="#9CA3AF" stroke-width="2" stroke-dasharray="6,4"/>
  <line x1="640" y1="458" x2="820" y2="530" stroke="#9CA3AF" stroke-width="2" stroke-dasharray="6,4"/>
  <line x1="900" y1="458" x2="900" y2="530" stroke="#9CA3AF" stroke-width="2" stroke-dasharray="6,4"/>
  <line x1="1145" y1="458" x2="1145" y2="530" stroke="#9CA3AF" stroke-width="2" stroke-dasharray="6,4"/>

  <!-- ── External: Strava API ── -->
  <rect x="35" y="536" width="200" height="64" rx="10" fill="url(#extGrad)" filter="url(#shadowSm)"/>
  <text x="135" y="566" text-anchor="middle" font-size="14" font-weight="600" fill="#fff">Strava API</text>
  <text x="135" y="584" text-anchor="middle" font-size="10.5" fill="#9CA3AF">OAuth2 · REST</text>

  <!-- ── External: SQLite ── -->
  <rect x="360" y="536" width="200" height="64" rx="10" fill="url(#extGrad)" filter="url(#shadowSm)"/>
  <text x="460" y="566" text-anchor="middle" font-size="14" font-weight="600" fill="#fff">SQLite</text>
  <text x="460" y="584" text-anchor="middle" font-size="10.5" fill="#9CA3AF">Goals · Tokens · Cache</text>

  <!-- ── External: Garmin Connect ── -->
  <rect x="720" y="536" width="200" height="64" rx="10" fill="url(#extGrad)" filter="url(#shadowSm)"/>
  <text x="820" y="566" text-anchor="middle" font-size="14" font-weight="600" fill="#fff">Garmin Connect</text>
  <text x="820" y="584" text-anchor="middle" font-size="10.5" fill="#9CA3AF">SSO · Workouts → Watch</text>

  <!-- ── External: Withings API ── -->
  <rect x="800" y="636" width="200" height="56" rx="10" fill="url(#extGrad)" filter="url(#shadowSm)"/>
  <text x="900" y="662" text-anchor="middle" font-size="13" font-weight="600" fill="#fff">Withings API</text>
  <text x="900" y="678" text-anchor="middle" font-size="10.5" fill="#9CA3AF">withings-sync</text>

  <!-- ── External: Notion API ── -->
  <rect x="1045" y="536" width="200" height="64" rx="10" fill="url(#extGrad)" filter="url(#shadowSm)"/>
  <text x="1145" y="566" text-anchor="middle" font-size="14" font-weight="600" fill="#fff">Notion API</text>
  <text x="1145" y="584" text-anchor="middle" font-size="10.5" fill="#9CA3AF">Internal Integration</text>

  <!-- Data flow arrows -->
  <text x="70" y="520" font-size="9" fill="#6B7280">↓ pull data</text>
  <text x="432" y="520" font-size="9" fill="#6B7280">↕ persist</text>
  <text x="780" y="520" font-size="9" fill="#6B7280">↑ push workouts</text>
  <text x="1100" y="520" font-size="9" fill="#6B7280">↓ pull diary</text>

  <!-- Withings connection -->
  <line x1="900" y1="600" x2="900" y2="636" stroke="#9CA3AF" stroke-width="2" stroke-dasharray="6,4"/>
  <text x="848" y="624" font-size="9" fill="#6B7280">↓ pull body comp</text>

  <!-- Footer -->
  <text x="640" y="740" text-anchor="middle" font-size="10.5" fill="#9CA3AF">Streamable HTTP transport · Python 3.10+ · Async I/O</text>
</svg>
