<svg xmlns="http://www.w3.org/2000/svg" viewBox="0 0 960 640" font-family="'Segoe UI', system-ui, -apple-system, sans-serif">
  <defs>
    <linearGradient id="flaskGrad" x1="0%" y1="0%" x2="100%" y2="100%">
      <stop offset="0%" style="stop-color:#3B82F6;stop-opacity:1" />
      <stop offset="100%" style="stop-color:#1D4ED8;stop-opacity:1" />
    </linearGradient>
    <linearGradient id="claudeGrad" x1="0%" y1="0%" x2="100%" y2="100%">
      <stop offset="0%" style="stop-color:#D97757;stop-opacity:1" />
      <stop offset="100%" style="stop-color:#C4653F;stop-opacity:1" />
    </linearGradient>
    <linearGradient id="directGrad" x1="0%" y1="0%" x2="100%" y2="100%">
      <stop offset="0%" style="stop-color:#10B981;stop-opacity:1" />
      <stop offset="100%" style="stop-color:#059669;stop-opacity:1" />
    </linearGradient>
    <linearGradient id="mergeGrad" x1="0%" y1="0%" x2="100%" y2="100%">
      <stop offset="0%" style="stop-color:#7C3AED;stop-opacity:1" />
      <stop offset="100%" style="stop-color:#5B21B6;stop-opacity:1" />
    </linearGradient>
    <filter id="shadow" x="-4%" y="-4%" width="108%" height="116%">
      <feDropShadow dx="0" dy="2" stdDeviation="3" flood-color="#000" flood-opacity="0.10"/>
    </filter>
  </defs>

  <!-- Background -->
  <rect width="960" height="640" rx="12" fill="#F9FAFB"/>

  <!-- Title -->
  <text x="480" y="36" text-anchor="middle" font-size="14" font-weight="600" fill="#6B7280" letter-spacing="2">STATUS AGENT — PARALLEL EXECUTION FLOW</text>

  <!-- ── Step 1: Data Gathering ── -->
  <rect x="340" y="56" width="280" height="52" rx="10" fill="url(#flaskGrad)" filter="url(#shadow)"/>
  <text x="480" y="80" text-anchor="middle" font-size="14" font-weight="700" fill="#fff">1. Gather Data</text>
  <text x="480" y="96" text-anchor="middle" font-size="10" fill="#BFDBFE">Flask — _gather_status_data(db)</text>

  <!-- Arrow down, splits into 5 -->
  <line x1="480" y1="108" x2="480" y2="130" stroke="#6B7280" stroke-width="2"/>

  <!-- Fan-out lines -->
  <line x1="480" y1="130" x2="120" y2="160" stroke="#9CA3AF" stroke-width="1.5"/>
  <line x1="480" y1="130" x2="330" y2="160" stroke="#9CA3AF" stroke-width="1.5"/>
  <line x1="480" y1="130" x2="540" y2="160" stroke="#9CA3AF" stroke-width="1.5"/>
  <line x1="480" y1="130" x2="805" y2="160" stroke="#9CA3AF" stroke-width="1.5"/>

  <!-- ── Step 2: Parallel zone label ── -->
  <rect x="30" y="148" width="900" height="230" rx="10" fill="none" stroke="#D1D5DB" stroke-width="1" stroke-dasharray="6,4"/>
  <text x="50" y="168" font-size="10" font-weight="600" fill="#9CA3AF">PARALLEL (ThreadPoolExecutor)</text>

  <!-- ── Group A: Training ── -->
  <rect x="40" y="180" width="160" height="80" rx="8" fill="url(#claudeGrad)" filter="url(#shadow)"/>
  <text x="120" y="206" text-anchor="middle" font-size="12" font-weight="700" fill="#fff">Training</text>
  <text x="120" y="222" text-anchor="middle" font-size="9" fill="#FDDCCD">claude -p</text>
  <text x="120" y="248" text-anchor="middle" font-size="9" fill="#FDDCCD">activities · weekly</text>

  <!-- Sections produced -->
  <rect x="46" y="268" width="70" height="20" rx="4" fill="#FEF3C7" stroke="#F59E0B" stroke-width="1"/>
  <text x="81" y="282" text-anchor="middle" font-size="8" font-weight="600" fill="#92400E">Training Load</text>
  <rect x="124" y="268" width="70" height="20" rx="4" fill="#FEF3C7" stroke="#F59E0B" stroke-width="1"/>
  <text x="159" y="282" text-anchor="middle" font-size="8" font-weight="600" fill="#92400E">Recent Runs</text>

  <!-- ── Group B: Recovery ── -->
  <rect x="250" y="180" width="160" height="80" rx="8" fill="url(#claudeGrad)" filter="url(#shadow)"/>
  <text x="330" y="206" text-anchor="middle" font-size="12" font-weight="700" fill="#fff">Recovery</text>
  <text x="330" y="222" text-anchor="middle" font-size="9" fill="#FDDCCD">claude -p</text>
  <text x="330" y="248" text-anchor="middle" font-size="9" fill="#FDDCCD">wellness data</text>

  <rect x="280" y="268" width="100" height="20" rx="4" fill="#FEF3C7" stroke="#F59E0B" stroke-width="1"/>
  <text x="330" y="282" text-anchor="middle" font-size="8" font-weight="600" fill="#92400E">Recovery</text>

  <!-- ── Group C: Injury ── -->
  <rect x="460" y="180" width="160" height="80" rx="8" fill="url(#claudeGrad)" filter="url(#shadow)"/>
  <text x="540" y="206" text-anchor="middle" font-size="12" font-weight="700" fill="#fff">Injury</text>
  <text x="540" y="222" text-anchor="middle" font-size="9" fill="#FDDCCD">claude -p</text>
  <text x="540" y="248" text-anchor="middle" font-size="9" fill="#FDDCCD">diary · facts</text>

  <rect x="490" y="268" width="100" height="20" rx="4" fill="#FEF3C7" stroke="#F59E0B" stroke-width="1"/>
  <text x="540" y="282" text-anchor="middle" font-size="8" font-weight="600" fill="#92400E">Injury Status</text>

  <!-- ── Direct renders (stacked) ── -->
  <rect x="700" y="180" width="210" height="80" rx="8" fill="url(#directGrad)" filter="url(#shadow)"/>
  <text x="805" y="202" text-anchor="middle" font-size="12" font-weight="700" fill="#fff">Direct Render</text>
  <text x="805" y="218" text-anchor="middle" font-size="9" fill="#A7F3D0">no LLM needed</text>
  <text x="805" y="240" text-anchor="middle" font-size="9" fill="#A7F3D0">Withings data · Garmin calendar</text>

  <rect x="710" y="268" width="88" height="20" rx="4" fill="#D1FAE5" stroke="#10B981" stroke-width="1"/>
  <text x="754" y="282" text-anchor="middle" font-size="8" font-weight="600" fill="#065F46">Body Comp</text>
  <rect x="808" y="268" width="88" height="20" rx="4" fill="#D1FAE5" stroke="#10B981" stroke-width="1"/>
  <text x="852" y="282" text-anchor="middle" font-size="8" font-weight="600" fill="#065F46">Schedule</text>

  <!-- Legend -->
  <rect x="50" y="302" width="10" height="10" rx="2" fill="#D97757"/>
  <text x="66" y="312" font-size="9" fill="#6B7280">LLM call (claude -p)</text>
  <rect x="170" y="302" width="10" height="10" rx="2" fill="#10B981"/>
  <text x="186" y="312" font-size="9" fill="#6B7280">Direct render (no LLM)</text>

  <!-- ── Step 3: Barrier ── -->
  <line x1="50" y1="340" x2="910" y2="340" stroke="#D1D5DB" stroke-width="1" stroke-dasharray="4,3"/>
  <text x="480" y="356" text-anchor="middle" font-size="10" font-weight="600" fill="#9CA3AF">BARRIER — wait for all parallel calls</text>

  <!-- Fan-in lines to readiness -->
  <line x1="120" y1="340" x2="480" y2="384" stroke="#9CA3AF" stroke-width="1.5"/>
  <line x1="330" y1="340" x2="480" y2="384" stroke="#9CA3AF" stroke-width="1.5"/>
  <line x1="540" y1="340" x2="480" y2="384" stroke="#9CA3AF" stroke-width="1.5"/>

  <!-- ── Step 4: Readiness ── -->
  <rect x="350" y="384" width="260" height="68" rx="10" fill="url(#claudeGrad)" filter="url(#shadow)"/>
  <text x="480" y="412" text-anchor="middle" font-size="14" font-weight="700" fill="#fff">4. Overall Readiness</text>
  <text x="480" y="428" text-anchor="middle" font-size="9" fill="#FDDCCD">claude -p — receives summaries from Groups A, B, C</text>
  <text x="480" y="442" text-anchor="middle" font-size="9" fill="#FDDCCD">produces verdict: Fit to train | Train with caution | Rest</text>

  <rect x="415" y="460" width="130" height="20" rx="4" fill="#FEF3C7" stroke="#F59E0B" stroke-width="1"/>
  <text x="480" y="474" text-anchor="middle" font-size="8" font-weight="600" fill="#92400E">Overall Readiness</text>

  <!-- Arrow down -->
  <line x1="480" y1="488" x2="480" y2="510" stroke="#6B7280" stroke-width="2"/>

  <!-- ── Step 5: Merge ── -->
  <rect x="260" y="510" width="440" height="52" rx="10" fill="url(#mergeGrad)" filter="url(#shadow)"/>
  <text x="480" y="534" text-anchor="middle" font-size="14" font-weight="700" fill="#fff">5. Merge &amp; Render</text>
  <text x="480" y="550" text-anchor="middle" font-size="10" fill="#DDD6FE">_merge_status_html — section cards with RAG indicators</text>

  <!-- Direct sections feed into merge -->
  <line x1="805" y1="296" x2="700" y2="510" stroke="#10B981" stroke-width="1.5" stroke-dasharray="4,3"/>

  <!-- Arrow to output -->
  <line x1="480" y1="562" x2="480" y2="586" stroke="#6B7280" stroke-width="2"/>

  <!-- ── Output ── -->
  <rect x="310" y="586" width="340" height="40" rx="8" fill="#F3F4F6" stroke="#E5E7EB" stroke-width="1"/>
  <text x="480" y="611" text-anchor="middle" font-size="12" font-weight="600" fill="#374151">Styled HTML → Chat Message (agent="status")</text>
</svg>
